<mxfile host="app.diagrams.net" modified="2021-04-01T02:15:27.476Z" agent="5.0 (Windows NT 10.0; Win64; x64) AppleWebKit/537.36 (KHTML, like Gecko) Chrome/89.0.4389.90 Safari/537.36" etag="Fa-YeSub0nul1vDzaSS1" version="14.5.4" type="github">
  <diagram id="EIw71482ss5vCpOxMoAi" name="Page-1">
    <mxGraphModel dx="1038" dy="547" grid="1" gridSize="10" guides="1" tooltips="1" connect="1" arrows="1" fold="1" page="1" pageScale="1" pageWidth="827" pageHeight="1169" math="0" shadow="0">
      <root>
        <mxCell id="0" />
        <mxCell id="1" parent="0" />
        <mxCell id="aueo7Z-LPfCpKaGaATOH-30" value="" style="rounded=1;whiteSpace=wrap;html=1;shadow=0;sketch=1;strokeWidth=1;fillColor=#f5f5f5;strokeColor=#666666;fontColor=#333333;" vertex="1" parent="1">
          <mxGeometry x="67" y="210" width="595" height="250" as="geometry" />
        </mxCell>
        <mxCell id="aueo7Z-LPfCpKaGaATOH-20" style="rounded=0;sketch=1;orthogonalLoop=1;jettySize=auto;html=1;entryX=1.004;entryY=0.64;entryDx=0;entryDy=0;exitX=0;exitY=0.5;exitDx=0;exitDy=0;entryPerimeter=0;" edge="1" parent="1" source="aueo7Z-LPfCpKaGaATOH-2" target="aueo7Z-LPfCpKaGaATOH-19">
          <mxGeometry relative="1" as="geometry" />
        </mxCell>
        <mxCell id="aueo7Z-LPfCpKaGaATOH-2" value="Controller层&lt;br&gt;流程控制" style="rounded=1;whiteSpace=wrap;html=1;sketch=1;shadow=0;fillColor=#dae8fc;strokeColor=#6c8ebf;fontStyle=1" vertex="1" parent="1">
          <mxGeometry x="380" y="331" width="90" height="50" as="geometry" />
        </mxCell>
        <mxCell id="aueo7Z-LPfCpKaGaATOH-6" value="" style="strokeWidth=1;html=1;shape=mxgraph.flowchart.database;whiteSpace=wrap;shadow=0;sketch=1;spacing=1;fillColor=#e1d5e7;strokeColor=#9673a6;" vertex="1" parent="1">
          <mxGeometry x="95" y="233" width="60" height="60" as="geometry" />
        </mxCell>
        <mxCell id="aueo7Z-LPfCpKaGaATOH-7" value="" style="strokeWidth=1;html=1;shape=mxgraph.flowchart.database;whiteSpace=wrap;shadow=0;sketch=1;spacing=1;fillColor=#e1d5e7;strokeColor=#9673a6;" vertex="1" parent="1">
          <mxGeometry x="245" y="234" width="60" height="60" as="geometry" />
        </mxCell>
        <mxCell id="aueo7Z-LPfCpKaGaATOH-8" value="Mysql" style="text;html=1;resizable=0;autosize=1;align=center;verticalAlign=middle;points=[];fillColor=none;strokeColor=none;rounded=0;shadow=0;sketch=1;fontStyle=1" vertex="1" parent="1">
          <mxGeometry x="100" y="259" width="50" height="20" as="geometry" />
        </mxCell>
        <mxCell id="aueo7Z-LPfCpKaGaATOH-9" value="Redis" style="text;html=1;resizable=0;autosize=1;align=center;verticalAlign=middle;points=[];fillColor=none;strokeColor=none;rounded=0;shadow=0;sketch=1;fontStyle=1" vertex="1" parent="1">
          <mxGeometry x="250" y="260" width="50" height="20" as="geometry" />
        </mxCell>
        <mxCell id="aueo7Z-LPfCpKaGaATOH-11" value="全局异常处理" style="rounded=1;whiteSpace=wrap;html=1;sketch=1;shadow=0;fillColor=#dae8fc;strokeColor=#6c8ebf;fontStyle=1" vertex="1" parent="1">
          <mxGeometry x="385" y="250" width="80" height="40" as="geometry" />
        </mxCell>
        <mxCell id="aueo7Z-LPfCpKaGaATOH-16" value="" style="endArrow=classic;html=1;exitX=0;exitY=0.75;exitDx=0;exitDy=0;entryX=1;entryY=0.5;entryDx=0;entryDy=0;sketch=1;" edge="1" parent="1" source="aueo7Z-LPfCpKaGaATOH-12" target="aueo7Z-LPfCpKaGaATOH-2">
          <mxGeometry width="50" height="50" relative="1" as="geometry">
            <mxPoint x="640" y="450" as="sourcePoint" />
            <mxPoint x="690" y="400" as="targetPoint" />
          </mxGeometry>
        </mxCell>
        <mxCell id="aueo7Z-LPfCpKaGaATOH-17" value="" style="group" vertex="1" connectable="0" parent="1">
          <mxGeometry x="590" y="310" width="61" height="80" as="geometry" />
        </mxCell>
        <mxCell id="aueo7Z-LPfCpKaGaATOH-12" value="" style="shape=actor;whiteSpace=wrap;html=1;shadow=0;sketch=1;strokeWidth=1;" vertex="1" parent="aueo7Z-LPfCpKaGaATOH-17">
          <mxGeometry width="40" height="60" as="geometry" />
        </mxCell>
        <mxCell id="aueo7Z-LPfCpKaGaATOH-13" value="" style="shape=actor;whiteSpace=wrap;html=1;shadow=0;sketch=1;strokeWidth=1;" vertex="1" parent="aueo7Z-LPfCpKaGaATOH-17">
          <mxGeometry x="10" y="10" width="40" height="60" as="geometry" />
        </mxCell>
        <mxCell id="aueo7Z-LPfCpKaGaATOH-14" value="" style="shape=actor;whiteSpace=wrap;html=1;shadow=0;sketch=1;strokeWidth=1;" vertex="1" parent="aueo7Z-LPfCpKaGaATOH-17">
          <mxGeometry x="20" y="20" width="40" height="60" as="geometry" />
        </mxCell>
        <mxCell id="aueo7Z-LPfCpKaGaATOH-15" value="user" style="text;html=1;resizable=0;autosize=1;align=center;verticalAlign=middle;points=[];fillColor=none;strokeColor=none;rounded=0;shadow=0;sketch=1;fontStyle=1" vertex="1" parent="aueo7Z-LPfCpKaGaATOH-17">
          <mxGeometry x="21" y="55" width="40" height="20" as="geometry" />
        </mxCell>
        <mxCell id="aueo7Z-LPfCpKaGaATOH-18" value="选课请求" style="text;html=1;strokeColor=none;fillColor=none;align=center;verticalAlign=middle;whiteSpace=wrap;rounded=0;shadow=0;sketch=1;" vertex="1" parent="1">
          <mxGeometry x="510" y="337" width="60" height="20" as="geometry" />
        </mxCell>
        <mxCell id="aueo7Z-LPfCpKaGaATOH-23" value="" style="rounded=0;sketch=1;orthogonalLoop=1;jettySize=auto;html=1;entryX=1;entryY=0.5;entryDx=0;entryDy=0;exitX=-0.009;exitY=0.64;exitDx=0;exitDy=0;exitPerimeter=0;" edge="1" parent="1" source="aueo7Z-LPfCpKaGaATOH-19" target="aueo7Z-LPfCpKaGaATOH-22">
          <mxGeometry relative="1" as="geometry" />
        </mxCell>
        <mxCell id="aueo7Z-LPfCpKaGaATOH-25" value="" style="edgeStyle=orthogonalEdgeStyle;rounded=0;sketch=1;orthogonalLoop=1;jettySize=auto;html=1;entryX=0.5;entryY=1;entryDx=0;entryDy=0;entryPerimeter=0;" edge="1" parent="1" source="aueo7Z-LPfCpKaGaATOH-19" target="aueo7Z-LPfCpKaGaATOH-7">
          <mxGeometry relative="1" as="geometry">
            <mxPoint x="275" y="300" as="targetPoint" />
          </mxGeometry>
        </mxCell>
        <mxCell id="aueo7Z-LPfCpKaGaATOH-19" value="" style="rounded=1;whiteSpace=wrap;html=1;sketch=1;shadow=0;fillColor=#dae8fc;strokeColor=#6c8ebf;fontStyle=1" vertex="1" parent="1">
          <mxGeometry x="230" y="331" width="90" height="109" as="geometry" />
        </mxCell>
        <mxCell id="aueo7Z-LPfCpKaGaATOH-24" value="" style="edgeStyle=orthogonalEdgeStyle;rounded=0;sketch=1;orthogonalLoop=1;jettySize=auto;html=1;entryX=0.5;entryY=1;entryDx=0;entryDy=0;entryPerimeter=0;" edge="1" parent="1" source="aueo7Z-LPfCpKaGaATOH-22" target="aueo7Z-LPfCpKaGaATOH-6">
          <mxGeometry relative="1" as="geometry" />
        </mxCell>
        <mxCell id="aueo7Z-LPfCpKaGaATOH-22" value="Dao层&lt;br&gt;数据交互" style="rounded=1;whiteSpace=wrap;html=1;sketch=1;shadow=0;fillColor=#dae8fc;strokeColor=#6c8ebf;fontStyle=1" vertex="1" parent="1">
          <mxGeometry x="80" y="331" width="90" height="50" as="geometry" />
        </mxCell>
        <mxCell id="aueo7Z-LPfCpKaGaATOH-27" value="" style="endArrow=none;html=1;entryX=0.5;entryY=1;entryDx=0;entryDy=0;exitX=0.5;exitY=0;exitDx=0;exitDy=0;sketch=1;" edge="1" parent="1" source="aueo7Z-LPfCpKaGaATOH-2" target="aueo7Z-LPfCpKaGaATOH-11">
          <mxGeometry width="50" height="50" relative="1" as="geometry">
            <mxPoint x="270" y="300" as="sourcePoint" />
            <mxPoint x="320" y="250" as="targetPoint" />
          </mxGeometry>
        </mxCell>
        <mxCell id="aueo7Z-LPfCpKaGaATOH-28" value="&#xa;&#xa;&lt;span style=&quot;color: rgb(0, 0, 0); font-family: helvetica; font-size: 12px; font-style: normal; font-weight: 700; letter-spacing: normal; text-align: center; text-indent: 0px; text-transform: none; word-spacing: 0px; background-color: rgb(248, 249, 250); display: inline; float: none;&quot;&gt;Service层&lt;/span&gt;&lt;br style=&quot;color: rgb(0, 0, 0); font-family: helvetica; font-size: 12px; font-style: normal; font-weight: 700; letter-spacing: normal; text-align: center; text-indent: 0px; text-transform: none; word-spacing: 0px; background-color: rgb(248, 249, 250);&quot;&gt;&lt;span style=&quot;color: rgb(0, 0, 0); font-family: helvetica; font-size: 12px; font-style: normal; font-weight: 700; letter-spacing: normal; text-align: center; text-indent: 0px; text-transform: none; word-spacing: 0px; background-color: rgb(248, 249, 250); display: inline; float: none;&quot;&gt;逻辑处理&lt;/span&gt;&#xa;&#xa;" style="text;html=1;strokeColor=none;fillColor=none;align=center;verticalAlign=middle;whiteSpace=wrap;rounded=0;shadow=0;sketch=1;" vertex="1" parent="1">
          <mxGeometry x="242.5" y="339" width="65" height="34" as="geometry" />
        </mxCell>
        <mxCell id="aueo7Z-LPfCpKaGaATOH-29" value="&lt;b&gt;RabbitMQ&lt;/b&gt;" style="verticalLabelPosition=bottom;verticalAlign=top;html=1;shape=mxgraph.flowchart.parallel_mode;pointerEvents=1;shadow=0;sketch=1;strokeWidth=1;" vertex="1" parent="1">
          <mxGeometry x="240" y="376" width="70" height="40" as="geometry" />
        </mxCell>
      </root>
    </mxGraphModel>
  </diagram>
</mxfile>
